<svg width="43" height="216" viewBox="0 0 43 216" fill="none" xmlns="http://www.w3.org/2000/svg">
<g clip-path="url(#clip0_71_957)">
<mask id="mask0_71_957" style="mask-type:luminance" maskUnits="userSpaceOnUse" x="0" y="0" width="43" height="216">
<path d="M42.311 0H0V215.139H42.311V0Z" fill="white"/>
</mask>
<g mask="url(#mask0_71_957)">
<path d="M20.8 0L21.542 0.551L21.915 205.462L24.351 199.921C27.494 194.552 33.919 190.145 40.243 189.842C40.725 189.819 42.493 189.496 42.301 190.413C40.321 191.077 38.227 191.144 36.201 191.74C27.487 194.308 23.158 202.328 21.953 210.897C21.831 211.772 22.361 215.412 20.987 215.123C20.097 214.935 20.5 211.802 20.379 210.9C19.226 202.309 14.857 194.311 6.134 191.74C4.346 191.213 2.524 191.162 0.841998 190.711C0.180998 190.534 -0.117002 190.818 0.0419982 189.862C7.379 189.431 14.254 193.808 17.986 199.922L20.796 206.208L20.8 0Z" fill="#218656" stroke="#218656"/>
</g>
</g>
<defs>
<clipPath id="clip0_71_957">
<rect width="42.311" height="215.139" fill="white"/>
</clipPath>
</defs>
</svg>
