<svg width="134" height="134" viewBox="0 0 134 134" fill="none" xmlns="http://www.w3.org/2000/svg">
<path d="M131.274 72.9312L121.241 81.539L125.626 93.9977C127.219 98.5203 124.4 103.397 119.687 104.275L106.697 106.697L104.275 119.687C103.397 124.4 98.5201 127.219 93.9977 125.626L81.5393 121.241L72.9315 131.274C69.8127 134.909 64.1875 134.909 61.0688 131.274L52.461 121.241L40.0023 125.626C35.4797 127.219 30.6031 124.4 29.7246 119.687L27.3033 106.697L14.3132 104.275C9.59962 103.397 6.78147 98.5201 8.37357 93.9977L12.7594 81.5393L2.72639 72.9315C-0.908798 69.8127 -0.908798 64.1875 2.72639 61.0688L12.7594 52.461L8.37357 40.0023C6.78147 35.4797 9.59962 30.6031 14.3132 29.7246L27.3033 27.3033L29.7246 14.3132C30.6031 9.59963 35.4799 6.78147 40.0023 8.37357L52.4607 12.7594L61.0685 2.72639C64.1873 -0.908798 69.8124 -0.908798 72.9312 2.72639L81.539 12.7594L93.9977 8.37357C98.5203 6.78147 103.397 9.59963 104.275 14.3132L106.697 27.3033L119.687 29.7246C124.4 30.6031 127.219 35.4799 125.626 40.0023L121.241 52.4607L131.274 61.0685C134.909 64.1875 134.909 69.8125 131.274 72.9312Z" fill="#218656"/>
</svg>
