<svg width="134" height="134" viewBox="0 0 134 134" fill="none" xmlns="http://www.w3.org/2000/svg">
<path d="M47.5262 49.416C47.5542 49.444 47.5822 49.444 47.6102 49.472C47.6662 50.648 47.5822 50.816 47.5542 52.636C47.5542 53.084 47.6662 54.148 47.6942 54.596C47.6942 54.736 47.5822 54.876 47.4422 54.848C45.5662 54.792 42.3742 54.568 41.4222 54.596C40.0222 54.624 38.8462 54.708 38.8462 55.408C38.8462 56.08 39.3502 56.136 39.6302 56.192C40.6382 56.36 41.0862 56.22 42.3182 56.276C43.5502 56.36 44.7822 56.528 45.7342 57.34C46.5182 58.012 47.6662 58.88 47.6662 62.436C47.6662 62.968 47.4982 64.088 46.7702 65.18C46.4622 65.656 45.6502 66.328 44.6982 66.636C43.4942 67 42.0662 66.944 41.5062 66.972C41.0862 66.972 32.2662 67 32.2662 67C32.1542 67 32.0422 66.916 32.0422 66.776C32.0142 66.328 32.0422 65.88 32.0982 65.432C32.1822 64.312 32.0982 63.192 32.0982 62.072C32.0982 61.932 32.2382 61.82 32.3782 61.82C32.9662 61.876 34.1702 61.876 34.3942 61.876C35.5142 61.988 38.6502 61.932 39.6862 61.68C40.0502 61.568 40.3022 61.344 40.3302 60.924C40.3862 60.084 38.1182 60.42 37.3622 60.448C36.1582 60.504 35.0102 60.392 34.0022 59.748C33.2462 59.244 32.6582 58.432 32.3222 57.592C31.7062 55.94 31.9302 54.008 32.6862 52.356C33.1062 51.404 33.7782 50.592 34.7302 50.116C35.4862 49.752 36.3542 49.416 37.2222 49.416H47.5262ZM65.7621 49.556C65.7621 49.584 65.7621 55.268 65.7621 57.984C65.7621 60.7 65.7061 66.664 65.7061 66.832C65.7061 66.916 65.6221 67 65.5381 67H58.9301C58.8461 67 58.7901 66.916 58.7901 66.832C58.7901 66.72 58.7621 65.04 58.7061 64.256C58.6781 63.416 58.6221 61.54 57.8101 61.54C56.9981 61.54 57.0541 63.528 57.0261 64.2C56.9981 65.068 57.0821 65.936 57.0821 66.804C57.0821 66.916 57.0261 67 56.9141 67H50.2781C50.1661 67 50.1101 66.916 50.1101 66.804C50.3621 63.836 50.1101 52.356 50.0541 49.612C50.0261 49.5 50.1101 49.416 50.1941 49.416H56.8581C56.9421 49.416 57.0261 49.5 57.0261 49.612C56.9701 50.508 56.9981 52.72 56.9981 53.28C56.9981 54.792 57.4461 55.156 58.1741 54.988C58.9021 54.82 58.7901 53.952 58.7901 52.972C58.7901 52.3 58.7061 50.116 58.6781 49.612C58.6781 49.5 58.7341 49.416 58.8181 49.416H65.6221C65.6781 49.416 65.7621 49.472 65.7621 49.556ZM83.742 54.848C83.742 56.276 83.742 58.964 83.742 60.42C83.742 61.876 83.35 62.828 82.762 63.836C82.286 64.732 81.558 65.432 80.746 65.936C79.794 66.524 78.954 67 77.302 67C76.882 67 73.718 67 73.578 67C72.066 66.888 70.638 66.104 69.826 65.292C69.126 64.592 68.23 62.8 68.23 61.736C68.23 60.672 68.23 56.388 68.23 54.736C68.23 53.084 68.79 51.88 69.49 51.152C70.666 49.92 71.562 49.612 73.102 49.416C73.158 49.416 76.826 49.416 78.282 49.416C79.738 49.416 80.942 49.808 81.978 50.788C82.986 51.768 83.742 53.392 83.742 54.848ZM74.838 59.888C74.838 61.316 75.258 61.652 75.846 61.652C76.602 61.652 76.714 60.784 76.714 60.336C76.714 58.936 76.798 57.172 76.742 56.164C76.714 55.268 76.602 54.624 75.846 54.624C74.894 54.624 74.81 55.604 74.81 56.052C74.838 56.612 74.838 58.432 74.838 59.888ZM101.897 54.568C101.981 55.184 101.869 57.48 101.757 58.068C101.533 59.048 101.169 60.196 100.245 61.176C99.2932 62.184 98.5652 62.492 98.1172 62.744C97.2212 63.276 94.7572 63.584 94.1412 63.584C93.3292 63.584 93.1612 63.836 93.0772 64.648C93.0492 65.124 93.0212 66.048 93.0492 66.664C93.0492 66.86 92.9372 67.028 92.7692 67.028H86.3572C86.2172 67.028 86.1052 66.86 86.1052 66.692C86.1052 66.692 86.2172 62.436 86.2172 60.868C86.2172 57.704 86.1612 54.568 86.1332 51.404C86.1332 50.788 86.1332 50.172 86.1332 49.556C86.1332 49.444 86.1612 49.416 86.2732 49.416H97.0812C97.7812 49.416 98.7052 49.5 99.9932 50.508C101.253 51.488 101.757 53.392 101.897 54.568ZM94.8692 54.764C94.8412 54.372 94.8692 53.448 94.0852 53.448C93.2732 53.448 93.2452 54.428 93.2172 54.708C93.1892 55.212 93.1612 57.06 93.1612 57.48C93.1892 57.9 93.1892 58.852 94.0012 58.852C94.8132 58.852 94.8132 58.124 94.8412 57.788C94.8692 57.2 94.8972 55.184 94.8692 54.764ZM55.9105 82.02C55.9105 84.26 55.8545 89.552 55.8825 89.944C55.8825 89.972 55.8545 90 55.8265 90H48.6025C48.5745 90 48.5745 90 48.5465 89.972C48.4345 89.496 48.2945 89.048 48.1265 88.6C47.8185 87.676 47.6785 86.22 47.2865 85.464C47.0625 85.072 46.6145 85.38 46.5865 85.856C46.5305 87.032 46.6425 88.74 46.6425 89.944C46.6425 89.972 46.6145 90 46.5865 90H40.1745C40.1185 90 40.1185 89.972 40.1185 89.916C40.1185 86.836 40.2025 83.784 40.2025 80.704C40.2305 78.072 40.1465 72.472 40.1465 72.472C40.1465 72.416 40.1745 72.388 40.2025 72.388L47.2025 72.416C47.2305 72.416 47.2585 72.416 47.2585 72.444C47.6505 73.76 47.9585 76.112 48.4345 77.344C48.5185 77.568 48.7145 77.652 48.8825 77.596C49.0785 77.54 49.1625 77.316 49.1905 77.092C49.3025 75.916 49.2465 73.704 49.2465 72.472C49.2465 72.444 49.2745 72.416 49.3025 72.416H55.9105C55.9385 72.416 55.9665 72.444 55.9665 72.472C55.9665 72.5 55.9665 72.528 55.9665 72.556C55.9665 75.72 55.9105 78.856 55.9105 82.02ZM73.8884 77.848C73.8884 79.276 73.8884 81.964 73.8884 83.42C73.8884 84.876 73.4964 85.828 72.9084 86.836C72.4324 87.732 71.7044 88.432 70.8924 88.936C69.9404 89.524 69.1004 90 67.4484 90C67.0284 90 63.8644 90 63.7244 90C62.2124 89.888 60.7844 89.104 59.9724 88.292C59.2724 87.592 58.3764 85.8 58.3764 84.736C58.3764 83.672 58.3764 79.388 58.3764 77.736C58.3764 76.084 58.9364 74.88 59.6364 74.152C60.8124 72.92 61.7084 72.612 63.2484 72.416C63.3044 72.416 66.9724 72.416 68.4284 72.416C69.8844 72.416 71.0884 72.808 72.1244 73.788C73.1324 74.768 73.8884 76.392 73.8884 77.848ZM64.9844 82.888C64.9844 84.316 65.4044 84.652 65.9924 84.652C66.7484 84.652 66.8604 83.784 66.8604 83.336C66.8604 81.936 66.9444 80.172 66.8884 79.164C66.8604 78.268 66.7484 77.624 65.9924 77.624C65.0404 77.624 64.9564 78.604 64.9564 79.052C64.9844 79.612 64.9844 81.432 64.9844 82.888ZM88.5156 72.416H93.8076C93.9476 72.416 94.0316 72.556 94.0036 72.696C93.4996 75.496 93.4716 77.288 93.1916 80.116C92.8556 83.364 92.7716 84.456 92.6596 85.24C92.5476 86.024 92.5476 87.34 92.4636 88.152C92.3796 88.712 92.3516 89.244 92.2676 89.804C92.2676 89.916 92.1836 90.028 92.0716 90.028H86.3316C86.2476 90.028 86.1636 89.944 86.1356 89.832C85.8556 88.236 85.7436 87.424 85.7156 85.744C85.7156 85.268 85.0716 84.96 84.9036 85.464C84.5396 86.416 84.5676 87.508 84.4276 88.516C84.3156 89.244 84.3156 89.104 84.2316 89.804C84.2036 89.944 84.1196 90.028 84.0356 90.028H78.1276C78.0436 90.028 77.9596 89.944 77.9316 89.832C77.7636 89.048 77.6516 88.236 77.5396 87.424C77.3716 85.996 77.2316 84.568 77.0916 83.14C76.9796 81.544 76.7836 79.976 76.6436 78.38C76.4756 76.504 76.3916 74.6 76.0836 72.752C76.0836 72.752 76.0836 72.724 76.0836 72.696V72.64C76.0836 72.528 76.1676 72.416 76.2796 72.416H81.8236C81.9356 72.416 82.0196 72.5 82.0196 72.64C82.1036 74.124 82.3556 75.636 82.5516 77.12C82.6076 77.652 83.2796 77.596 83.3916 77.12C83.6996 75.636 83.8396 74.124 83.9796 72.612C83.9796 72.5 84.0636 72.416 84.1756 72.416H86.1076C86.2196 72.416 86.3036 72.5 86.3036 72.64C86.3596 74.18 86.4156 75.748 86.7516 77.26C86.8356 77.652 87.5356 77.708 87.7036 77.176C88.0396 76 87.9556 75.72 88.0676 75.02C88.1796 74.208 88.2076 73.396 88.3196 72.612C88.3196 72.5 88.4036 72.416 88.5156 72.416Z" fill="#FFFEEB"/>
</svg>
